<?xml version="1.0" standalone="no"?>
<!DOCTYPE svg PUBLIC "-//W3C//DTD SVG 1.1//EN" "http://www.w3.org/Graphics/SVG/1.1/DTD/svg11.dtd">
<!--Generator: Xara Designer (www.xara.com), SVG filter version: 6.1.0.16-->
<svg stroke-width="0.501" stroke-linejoin="bevel" fill-rule="evenodd" xmlns:xlink="http://www.w3.org/1999/xlink" xmlns="http://www.w3.org/2000/svg" version="1.1" overflow="visible" width="720pt" height="720pt" viewBox="0 0 720 720">
 <defs>
	</defs>
 <g id="Document" fill="none" stroke="black" font-family="Times New Roman" font-size="16" transform="scale(1 -1)">
  <g id="Spread" transform="translate(0 -720)">
   <g id="Layer 1">
    <path d="M 206.903,33.006 C 205.943,34.196 205.002,35.375 204.068,36.551 C 180.445,62.092 166.633,83.137 160.148,103.576 C 113.778,207.237 238.264,239.608 292.775,719.999 C 292.871,719.255 292.965,718.511 293.063,717.772 C 293.128,718.509 293.193,719.253 293.26,719.999 C 293.402,718.866 293.548,717.738 293.694,716.613 C 293.838,717.738 293.985,718.866 294.131,719.999 C 294.194,719.253 294.258,718.509 294.323,717.772 C 294.422,718.511 294.515,719.255 294.614,719.999 C 349.123,239.608 473.609,207.237 427.238,103.576 C 420.753,83.137 406.941,62.092 383.318,36.551 C 382.384,35.375 381.444,34.196 380.488,33.006 C 362.258,10.307 328.036,-0.455 293.694,0.015 C 259.35,-0.455 225.129,10.307 206.903,33.006 Z M 308.692,36.116 C 295.749,39.04 283.007,43.844 270.839,50.636 C 211.309,83.862 185.089,153.777 204.654,216.388 C 201.702,212.428 198.976,208.228 196.501,203.798 C 166.028,149.205 185.603,80.166 240.196,49.693 C 261.856,37.6 285.794,33.39 308.692,36.116 Z" stroke="none" fill="#000000" stroke-width="1.867" stroke-linejoin="round" stroke-linecap="round" marker-start="none" marker-end="none" stroke-miterlimit="79.8403193612775"/>
   </g>
  </g>
 </g>
</svg>
